<svg xmlns="http://www.w3.org/2000/svg" width="22.613" height="24.981" viewBox="0 0 22.613 24.981">
  <g id="Icon_Bootcamp" data-name="Icon Bootcamp" transform="translate(-853.805 -599.421)">
    <path id="Caminho_3620" data-name="Caminho 3620" d="M864.073,610.978a1.288,1.288,0,0,0,1.287,1.288c1.086,0,1.867-.577,1.867-1.288,0-.611-.733-1.289-1.867-1.289A1.288,1.288,0,0,0,864.073,610.978Z" fill="#22e0db"/>
    <path id="Caminho_3621" data-name="Caminho 3621" d="M867.934,613.08v0c.229.819,1.114,2.964,4.411,5.156a.837.837,0,0,0,1.042-.09,10.164,10.164,0,0,0-1.988-16.006.857.857,0,0,0-1.243.434l-2.263,6.129a2.743,2.743,0,0,1,.041,4.374Z" fill="#22e0db"/>
    <path id="Caminho_3622" data-name="Caminho 3622" d="M855.084,615.065a11.062,11.062,0,0,1,13.645-14.62l-2.461,7.688a2.986,2.986,0,1,0-.021,5.7,11.675,11.675,0,0,0,6.228,6.735l-.14,1.186-16.947-4.185Z" fill="none" stroke="#22e0db" stroke-linecap="round" stroke-linejoin="round" stroke-width="1"/>
    <line id="Linha_286" data-name="Linha 286" x2="16.608" y2="4.081" transform="translate(855.354 619.716)" fill="none" stroke="#22e0db" stroke-linecap="round" stroke-linejoin="round" stroke-width="1"/>
  </g>
</svg>
