<svg xmlns="http://www.w3.org/2000/svg" width="23.54" height="22.79" viewBox="0 0 23.54 22.79">
  <g id="Icon_Parceria" data-name="Icon Parceria" transform="translate(-852.8 -651.699)">
    <path id="Caminho_3623" data-name="Caminho 3623" d="M871.72,659.379a5.617,5.617,0,0,1-.07.92,7.15,7.15,0,0,1-4.07,5.58,3.393,3.393,0,1,0-6.02.02,7.154,7.154,0,0,1-4.12-5.58,5.863,5.863,0,0,1-.07-.94,7.175,7.175,0,1,1,14.35,0Z" fill="none" stroke="#22e0db" stroke-linecap="round" stroke-linejoin="round" stroke-width="1"/>
    <path id="Caminho_3624" data-name="Caminho 3624" d="M875.84,666.819a7.175,7.175,0,0,1-14.35,0,5.617,5.617,0,0,1,.07-.92,7.194,7.194,0,0,0,6.02-.02,7.128,7.128,0,0,0-3.01-4.95,7.177,7.177,0,0,1,11.27,5.89Z" fill="none" stroke="#22e0db" stroke-linecap="round" stroke-linejoin="round" stroke-width="1"/>
    <path id="Caminho_3625" data-name="Caminho 3625" d="M867.58,665.879a7.194,7.194,0,0,1-6.02.02,3.393,3.393,0,1,1,6.02-.02Z" fill="#22e0db" stroke="#22e0db" stroke-linecap="round" stroke-linejoin="round" stroke-width="1"/>
    <path id="Caminho_3626" data-name="Caminho 3626" d="M867.65,666.819a7.168,7.168,0,1,1-3.08-5.89,7.115,7.115,0,0,0-3.01,4.97,7.194,7.194,0,0,0,6.02-.02A5.863,5.863,0,0,1,867.65,666.819Z" fill="none" stroke="#22e0db" stroke-linecap="round" stroke-linejoin="round" stroke-width="1"/>
  </g>
</svg>
