<svg xmlns="http://www.w3.org/2000/svg" width="22.796" height="22.767" viewBox="0 0 22.796 22.767">
  <g id="Icon_Basecamp" data-name="Icon Basecamp" transform="translate(-852.509 -548.132)">
    <g id="Grupo_1813" data-name="Grupo 1813">
      <path id="Caminho_3618" data-name="Caminho 3618" d="M868.424,562.782c.023.021.046.045.068.067,2.459,2.46-2.147,7.158-5.726,6.443a3.949,3.949,0,0,0,.528-3.276c-.206.1-.417.2-.631.293a4.189,4.189,0,0,1-5.536-5.536q.171-.377.346-.74a3.867,3.867,0,0,0-3.542.424c-.716-3.58,3.982-8.187,6.441-5.727.1.1.19.2.273.3,6.21-7.489,14.065-6.3,14.065-6.3S875.9,556.573,868.424,562.782Z" fill="none" stroke="#22e0db" stroke-linecap="round" stroke-linejoin="round" stroke-width="1"/>
      <circle id="Elipse_267" data-name="Elipse 267" cx="1.717" cy="1.717" r="1.717" transform="translate(866.4 553.603)" fill="#22e0db"/>
      <circle id="Elipse_268" data-name="Elipse 268" cx="1.049" cy="1.049" r="1.049" transform="translate(863.223 558.115)" fill="#22e0db"/>
    </g>
    <g id="Grupo_1814" data-name="Grupo 1814">
      <path id="Caminho_3619" data-name="Caminho 3619" d="M859.414,568.488a7.131,7.131,0,0,1-6.743,2.311l-.063-.063a7.13,7.13,0,0,1,2.312-6.742S854.827,567.363,859.414,568.488Z" fill="#22e0db"/>
    </g>
  </g>
</svg>
